<svg xmlns="http://www.w3.org/2000/svg" xmlns:xlink="http://www.w3.org/1999/xlink" width="393" zoomAndPan="magnify" viewBox="0 0 294.75 94.499997" height="126" preserveAspectRatio="xMidYMid meet" version="1.0"><path fill="#26386f" d="M 45.496094 5.65625 C 31.914062 9.308594 21.613281 18.914062 17.597656 31.671875 C 15.128906 39.523438 15.339844 51.1875 18.09375 59.230469 C 21.722656 69.832031 27.46875 76.546875 36.941406 81.261719 C 58.214844 91.847656 85.4375 82.574219 92.390625 62.375 L 93.765625 58.375 L 90.375 57.910156 C 84.296875 57.078125 73.140625 57.367188 72.3125 58.378906 C 71.894531 58.890625 70.664062 60.417969 69.578125 61.769531 C 66.394531 65.738281 62.34375 67.421875 55.839844 67.472656 C 48.515625 67.53125 43.890625 65.335938 40.390625 60.144531 C 37.234375 55.464844 36.234375 51.679688 36.21875 44.390625 C 36.191406 31.25 43.851562 22.902344 55.859375 22.976562 C 63.089844 23.023438 66.964844 24.9375 70.570312 30.246094 L 72.324219 32.828125 L 82.765625 32.828125 C 91.433594 32.828125 93.28125 32.632812 93.644531 31.6875 C 94.433594 29.632812 89.273438 20.730469 84.570312 16.039062 C 76.714844 8.207031 67.25 4.460938 55.484375 4.535156 C 52.203125 4.558594 47.707031 5.0625 45.496094 5.65625 M 224.5625 21.355469 C 222.894531 22.523438 222.851562 22.820312 223.347656 29.375 C 223.628906 33.121094 224.484375 39.875 225.246094 44.390625 C 228.933594 66.246094 235.640625 79.398438 245.355469 83.824219 C 253.738281 87.640625 271.734375 83.988281 278.660156 77.0625 C 281.007812 74.714844 284.152344 69.53125 284.152344 68.007812 C 284.152344 67.617188 280.023438 67.363281 274.640625 67.417969 C 265.753906 67.511719 264.84375 67.386719 260.828125 65.503906 C 257.324219 63.863281 255.855469 63.566406 252.925781 63.914062 C 248.308594 64.460938 246.304688 63.394531 245.679688 60.054688 C 244.972656 56.289062 245.820312 53.898438 248.316406 52.609375 C 252.769531 50.308594 256.355469 51.8125 257.683594 56.539062 C 258.207031 58.417969 259.140625 59.636719 260.566406 60.320312 C 264.28125 62.105469 275.246094 63.675781 279.914062 63.089844 L 284.210938 62.554688 L 283.996094 56.828125 L 283.777344 51.105469 L 275.019531 50.589844 C 265.027344 50.003906 258.644531 48.578125 253.503906 45.777344 C 250.710938 44.257812 249.351562 43.941406 247.292969 44.328125 C 242.570312 45.214844 238.640625 41.816406 238.640625 36.84375 C 238.640625 32.996094 242.179688 29.84375 246.496094 29.84375 C 249.417969 29.84375 252.816406 33.570312 252.816406 36.78125 C 252.816406 40.015625 253.351562 40.441406 260.917969 43.230469 C 266.078125 45.136719 268.179688 45.507812 273.707031 45.507812 C 282.589844 45.507812 284.15625 44.867188 284.136719 41.238281 C 284.109375 37.066406 281.554688 32.15625 277.347656 28.199219 C 270.609375 21.867188 262.5625 20.144531 239.761719 20.144531 C 228.539062 20.144531 226.003906 20.34375 224.5625 21.355469 M 126.824219 21.730469 C 118.207031 23.160156 108.476562 30.765625 104.699219 39.019531 C 102.226562 44.417969 101.101562 52.992188 102.070312 59.046875 C 103.101562 65.5 107.246094 73.644531 111.480469 77.546875 C 125.660156 90.617188 151.847656 88.246094 161.984375 72.972656 C 167.308594 64.953125 169.34375 53.453125 167 44.640625 C 162.476562 27.644531 146.402344 18.476562 126.824219 21.730469 M 207.605469 23.421875 C 205.511719 24.398438 202.402344 26.644531 200.703125 28.414062 L 197.609375 31.636719 L 197.609375 22.382812 L 178.210938 22.382812 L 178.210938 85.050781 L 197.511719 85.050781 L 197.746094 67.703125 C 197.960938 51.847656 198.113281 50.136719 199.5 47.773438 C 201.6875 44.046875 204.78125 42.546875 211.53125 41.9375 L 217.378906 41.40625 L 217.585938 31.519531 L 217.796875 21.636719 L 214.605469 21.644531 C 212.824219 21.648438 209.726562 22.433594 207.605469 23.421875 M 128.53125 39.460938 C 123.414062 42.582031 121.011719 48.199219 121.828125 55.148438 C 122.792969 63.394531 126.375 68.085938 132.4375 69.054688 C 141.234375 70.460938 147.675781 63.90625 147.890625 53.34375 C 148.003906 47.789062 145.480469 42.214844 141.730469 39.726562 C 138.433594 37.542969 131.894531 37.410156 128.53125 39.460938 " fill-opacity="1" fill-rule="evenodd"/></svg>